{
	"asset":{
		"generator":"Khronos glTF Blender I/O v4.1.63",
		"version":"2.0"
	},
	"extensionsUsed":[
		"KHR_materials_specular"
	],
	"scene":0,
	"scenes":[
		{
			"name":"Scene",
			"nodes":[
				0,
				1,
				2,
				3,
				4,
				5,
				6,
				7,
				8,
				9,
				10,
				11,
				12,
				13,
				14,
				15,
				16,
				17,
				18
			]
		}
	],
	"nodes":[
		{
			"mesh":0,
			"name":"Cube.010",
			"rotation":[
				0.7071068286895752,
				0,
				0,
				0.7071068286895752
			]
		},
		{
			"mesh":1,
			"name":"Cube.034_Cube.018",
			"rotation":[
				-0.7071068286895752,
				0,
				0,
				0.7071068286895752
			],
			"scale":[
				-1,
				-1,
				-1
			]
		},
		{
			"mesh":2,
			"name":"Cube.034_Cube.019",
			"rotation":[
				-0.7071068286895752,
				0,
				0,
				0.7071068286895752
			],
			"scale":[
				-1,
				-1,
				-1
			]
		},
		{
			"mesh":3,
			"name":"Cube.034_Cube.020",
			"rotation":[
				-0.7071068286895752,
				0,
				0,
				0.7071068286895752
			],
			"scale":[
				-1,
				-1,
				-1
			]
		},
		{
			"mesh":4,
			"name":"Cube.034_Cube.021",
			"rotation":[
				-0.7071068286895752,
				0,
				0,
				0.7071068286895752
			],
			"scale":[
				-1,
				-1,
				-1
			]
		},
		{
			"mesh":5,
			"name":"Cube.034_Cube.022",
			"rotation":[
				-0.7071068286895752,
				0,
				0,
				0.7071068286895752
			],
			"scale":[
				-1,
				-1,
				-1
			]
		},
		{
			"mesh":6,
			"name":"Cube.034_Cube.023",
			"rotation":[
				-0.7071068286895752,
				0,
				0,
				0.7071068286895752
			],
			"scale":[
				-1,
				-1,
				-1
			]
		},
		{
			"mesh":7,
			"name":"Cube.034_Cube.024",
			"rotation":[
				-0.7071068286895752,
				0,
				0,
				0.7071068286895752
			],
			"scale":[
				-1,
				-1,
				-1
			]
		},
		{
			"mesh":8,
			"name":"Cube.034_Cube.025",
			"rotation":[
				-0.7071068286895752,
				0,
				0,
				0.7071068286895752
			],
			"scale":[
				-1,
				-1,
				-1
			]
		},
		{
			"mesh":9,
			"name":"Cube.034_Cube.026",
			"rotation":[
				-0.7071068286895752,
				0,
				0,
				0.7071068286895752
			],
			"scale":[
				-1,
				-1,
				-1
			]
		},
		{
			"mesh":10,
			"name":"Cube.034_Cube.027",
			"rotation":[
				-0.7071068286895752,
				0,
				0,
				0.7071068286895752
			],
			"scale":[
				-1,
				-1,
				-1
			]
		},
		{
			"mesh":11,
			"name":"Cube.034_Cube.028",
			"rotation":[
				-0.7071068286895752,
				0,
				0,
				0.7071068286895752
			],
			"scale":[
				-1,
				-1,
				-1
			]
		},
		{
			"mesh":12,
			"name":"Cube.034_Cube.029",
			"rotation":[
				-0.7071068286895752,
				0,
				0,
				0.7071068286895752
			],
			"scale":[
				-1,
				-1,
				-1
			]
		},
		{
			"mesh":13,
			"name":"Cube.034_Cube.030",
			"rotation":[
				-0.7071068286895752,
				0,
				0,
				0.7071068286895752
			],
			"scale":[
				-1,
				-1,
				-1
			]
		},
		{
			"mesh":14,
			"name":"Cube.034_Cube.031",
			"rotation":[
				-0.7071068286895752,
				0,
				0,
				0.7071068286895752
			],
			"scale":[
				-1,
				-1,
				-1
			]
		},
		{
			"mesh":15,
			"name":"Cube.034_Cube.032",
			"rotation":[
				-0.7071068286895752,
				0,
				0,
				0.7071068286895752
			],
			"scale":[
				-1,
				-1,
				-1
			]
		},
		{
			"mesh":16,
			"name":"Cube.034_Cube.033",
			"rotation":[
				-0.7071068286895752,
				0,
				0,
				0.7071068286895752
			],
			"scale":[
				-1,
				-1,
				-1
			]
		},
		{
			"mesh":17,
			"name":"Cube.034_Cube.034",
			"rotation":[
				-0.7071068286895752,
				0,
				0,
				0.7071068286895752
			],
			"scale":[
				-1,
				-1,
				-1
			]
		},
		{
			"mesh":18,
			"name":"Cube.034_Cube.035",
			"rotation":[
				-0.7071068286895752,
				0,
				0,
				0.7071068286895752
			],
			"scale":[
				-1,
				-1,
				-1
			]
		}
	],
	"materials":[
		{
			"doubleSided":true,
			"extensions":{
				"KHR_materials_specular":{
					"specularFactor":0
				}
			},
			"name":"None",
			"pbrMetallicRoughness":{
				"baseColorFactor":[
					0.800000011920929,
					0.800000011920929,
					0.800000011920929,
					1
				],
				"metallicFactor":0
			}
		}
	],
	"meshes":[
		{
			"name":"Cube.010",
			"primitives":[
				{
					"attributes":{
						"POSITION":0,
						"NORMAL":1,
						"TEXCOORD_0":2
					},
					"indices":3,
					"material":0
				}
			]
		},
		{
			"name":"Cube.034_Cube.018",
			"primitives":[
				{
					"attributes":{
						"POSITION":4,
						"NORMAL":5,
						"TEXCOORD_0":6
					},
					"indices":7,
					"material":0
				}
			]
		},
		{
			"name":"Cube.034_Cube.019",
			"primitives":[
				{
					"attributes":{
						"POSITION":8,
						"NORMAL":9,
						"TEXCOORD_0":10
					},
					"indices":11,
					"material":0
				}
			]
		},
		{
			"name":"Cube.034_Cube.020",
			"primitives":[
				{
					"attributes":{
						"POSITION":12,
						"NORMAL":13,
						"TEXCOORD_0":14
					},
					"indices":15,
					"material":0
				}
			]
		},
		{
			"name":"Cube.034_Cube.021",
			"primitives":[
				{
					"attributes":{
						"POSITION":16,
						"NORMAL":17,
						"TEXCOORD_0":18
					},
					"indices":19,
					"material":0
				}
			]
		},
		{
			"name":"Cube.034_Cube.022",
			"primitives":[
				{
					"attributes":{
						"POSITION":20,
						"NORMAL":21,
						"TEXCOORD_0":22
					},
					"indices":23,
					"material":0
				}
			]
		},
		{
			"name":"Cube.034_Cube.023",
			"primitives":[
				{
					"attributes":{
						"POSITION":24,
						"NORMAL":25,
						"TEXCOORD_0":26
					},
					"indices":27,
					"material":0
				}
			]
		},
		{
			"name":"Cube.034_Cube.024",
			"primitives":[
				{
					"attributes":{
						"POSITION":28,
						"NORMAL":29,
						"TEXCOORD_0":30
					},
					"indices":31,
					"material":0
				}
			]
		},
		{
			"name":"Cube.034_Cube.025",
			"primitives":[
				{
					"attributes":{
						"POSITION":32,
						"NORMAL":33,
						"TEXCOORD_0":34
					},
					"indices":35,
					"material":0
				}
			]
		},
		{
			"name":"Cube.034_Cube.026",
			"primitives":[
				{
					"attributes":{
						"POSITION":36,
						"NORMAL":37,
						"TEXCOORD_0":38
					},
					"indices":39,
					"material":0
				}
			]
		},
		{
			"name":"Cube.034_Cube.027",
			"primitives":[
				{
					"attributes":{
						"POSITION":40,
						"NORMAL":41,
						"TEXCOORD_0":42
					},
					"indices":43,
					"material":0
				}
			]
		},
		{
			"name":"Cube.034_Cube.028",
			"primitives":[
				{
					"attributes":{
						"POSITION":44,
						"NORMAL":45,
						"TEXCOORD_0":46
					},
					"indices":47,
					"material":0
				}
			]
		},
		{
			"name":"Cube.034_Cube.029",
			"primitives":[
				{
					"attributes":{
						"POSITION":48,
						"NORMAL":49,
						"TEXCOORD_0":50
					},
					"indices":51,
					"material":0
				}
			]
		},
		{
			"name":"Cube.034_Cube.030",
			"primitives":[
				{
					"attributes":{
						"POSITION":52,
						"NORMAL":53,
						"TEXCOORD_0":54
					},
					"indices":55,
					"material":0
				}
			]
		},
		{
			"name":"Cube.034_Cube.031",
			"primitives":[
				{
					"attributes":{
						"POSITION":56,
						"NORMAL":57,
						"TEXCOORD_0":58
					},
					"indices":59,
					"material":0
				}
			]
		},
		{
			"name":"Cube.034_Cube.032",
			"primitives":[
				{
					"attributes":{
						"POSITION":60,
						"NORMAL":61,
						"TEXCOORD_0":62
					},
					"indices":63,
					"material":0
				}
			]
		},
		{
			"name":"Cube.034_Cube.033",
			"primitives":[
				{
					"attributes":{
						"POSITION":64,
						"NORMAL":65,
						"TEXCOORD_0":66
					},
					"indices":67,
					"material":0
				}
			]
		},
		{
			"name":"Cube.034_Cube.034",
			"primitives":[
				{
					"attributes":{
						"POSITION":68,
						"NORMAL":69,
						"TEXCOORD_0":70
					},
					"indices":71,
					"material":0
				}
			]
		},
		{
			"name":"Cube.034_Cube.035",
			"primitives":[
				{
					"attributes":{
						"POSITION":72,
						"NORMAL":73,
						"TEXCOORD_0":74
					},
					"indices":75,
					"material":0
				}
			]
		}
	],
	"accessors":[
		{
			"bufferView":0,
			"componentType":5126,
			"count":5632,
			"max":[
				-0.21379299461841583,
				0.099651999771595,
				-0.8553040027618408
			],
			"min":[
				-0.3397569954395294,
				-0.04978499934077263,
				-1.2147469520568848
			],
			"type":"VEC3"
		},
		{
			"bufferView":1,
			"componentType":5126,
			"count":5632,
			"type":"VEC3"
		},
		{
			"bufferView":2,
			"componentType":5126,
			"count":5632,
			"type":"VEC2"
		},
		{
			"bufferView":3,
			"componentType":5123,
			"count":8448,
			"type":"SCALAR"
		},
		{
			"bufferView":4,
			"componentType":5126,
			"count":3047,
			"max":[
				0.3536979854106903,
				0.12030000239610672,
				-0.768060028553009
			],
			"min":[
				0.2921079993247986,
				0.045003000646829605,
				-0.8988549709320068
			],
			"type":"VEC3"
		},
		{
			"bufferView":5,
			"componentType":5126,
			"count":3047,
			"type":"VEC3"
		},
		{
			"bufferView":6,
			"componentType":5126,
			"count":3047,
			"type":"VEC2"
		},
		{
			"bufferView":7,
			"componentType":5123,
			"count":5376,
			"type":"SCALAR"
		},
		{
			"bufferView":8,
			"componentType":5126,
			"count":2406,
			"max":[
				0.35680100321769714,
				0.14603300392627716,
				-0.7171239852905273
			],
			"min":[
				0.3092670142650604,
				0.056085001677274704,
				-0.8166710138320923
			],
			"type":"VEC3"
		},
		{
			"bufferView":9,
			"componentType":5126,
			"count":2406,
			"type":"VEC3"
		},
		{
			"bufferView":10,
			"componentType":5126,
			"count":2406,
			"type":"VEC2"
		},
		{
			"bufferView":11,
			"componentType":5123,
			"count":3840,
			"type":"SCALAR"
		},
		{
			"bufferView":12,
			"componentType":5126,
			"count":1536,
			"max":[
				0.3454129993915558,
				0.15736299753189087,
				-0.7513560056686401
			],
			"min":[
				0.29920199513435364,
				0.09538199752569199,
				-0.8142529726028442
			],
			"type":"VEC3"
		},
		{
			"bufferView":13,
			"componentType":5126,
			"count":1536,
			"type":"VEC3"
		},
		{
			"bufferView":14,
			"componentType":5126,
			"count":1536,
			"type":"VEC2"
		},
		{
			"bufferView":15,
			"componentType":5123,
			"count":2304,
			"type":"SCALAR"
		},
		{
			"bufferView":16,
			"componentType":5126,
			"count":3372,
			"max":[
				0.3250510096549988,
				0.19420500099658966,
				-0.7208669781684875
			],
			"min":[
				0.296097993850708,
				0.13829199969768524,
				-0.7932329773902893
			],
			"type":"VEC3"
		},
		{
			"bufferView":17,
			"componentType":5126,
			"count":3372,
			"type":"VEC3"
		},
		{
			"bufferView":18,
			"componentType":5126,
			"count":3372,
			"type":"VEC2"
		},
		{
			"bufferView":19,
			"componentType":5123,
			"count":5376,
			"type":"SCALAR"
		},
		{
			"bufferView":20,
			"componentType":5126,
			"count":1536,
			"max":[
				0.35881298780441284,
				0.15402400493621826,
				-0.7035409808158875
			],
			"min":[
				0.3398109972476959,
				0.13013200461864471,
				-0.75348299741745
			],
			"type":"VEC3"
		},
		{
			"bufferView":21,
			"componentType":5126,
			"count":1536,
			"type":"VEC3"
		},
		{
			"bufferView":22,
			"componentType":5126,
			"count":1536,
			"type":"VEC2"
		},
		{
			"bufferView":23,
			"componentType":5123,
			"count":2304,
			"type":"SCALAR"
		},
		{
			"bufferView":24,
			"componentType":5126,
			"count":1536,
			"max":[
				0.362962007522583,
				0.16454200446605682,
				-0.6736080050468445
			],
			"min":[
				0.343874990940094,
				0.13933899998664856,
				-0.7228279709815979
			],
			"type":"VEC3"
		},
		{
			"bufferView":25,
			"componentType":5126,
			"count":1536,
			"type":"VEC3"
		},
		{
			"bufferView":26,
			"componentType":5126,
			"count":1536,
			"type":"VEC2"
		},
		{
			"bufferView":27,
			"componentType":5123,
			"count":2304,
			"type":"SCALAR"
		},
		{
			"bufferView":28,
			"componentType":5126,
			"count":2380,
			"max":[
				0.36853399872779846,
				0.17624999582767487,
				-0.6456180214881897
			],
			"min":[
				0.34661099314689636,
				0.14756399393081665,
				-0.6990349888801575
			],
			"type":"VEC3"
		},
		{
			"bufferView":29,
			"componentType":5126,
			"count":2380,
			"type":"VEC3"
		},
		{
			"bufferView":30,
			"componentType":5126,
			"count":2380,
			"type":"VEC2"
		},
		{
			"bufferView":31,
			"componentType":5123,
			"count":3840,
			"type":"SCALAR"
		},
		{
			"bufferView":32,
			"componentType":5126,
			"count":1536,
			"max":[
				0.35202500224113464,
				0.12702199816703796,
				-0.6966210007667542
			],
			"min":[
				0.3332270085811615,
				0.10392700135707855,
				-0.7478910088539124
			],
			"type":"VEC3"
		},
		{
			"bufferView":33,
			"componentType":5126,
			"count":1536,
			"type":"VEC3"
		},
		{
			"bufferView":34,
			"componentType":5126,
			"count":1536,
			"type":"VEC2"
		},
		{
			"bufferView":35,
			"componentType":5123,
			"count":2304,
			"type":"SCALAR"
		},
		{
			"bufferView":36,
			"componentType":5126,
			"count":1536,
			"max":[
				0.35540300607681274,
				0.13398799300193787,
				-0.6652780175209045
			],
			"min":[
				0.3365980088710785,
				0.11036200076341629,
				-0.7161890268325806
			],
			"type":"VEC3"
		},
		{
			"bufferView":37,
			"componentType":5126,
			"count":1536,
			"type":"VEC3"
		},
		{
			"bufferView":38,
			"componentType":5126,
			"count":1536,
			"type":"VEC2"
		},
		{
			"bufferView":39,
			"componentType":5123,
			"count":2304,
			"type":"SCALAR"
		},
		{
			"bufferView":40,
			"componentType":5126,
			"count":2380,
			"max":[
				0.36059901118278503,
				0.14324499666690826,
				-0.6299830079078674
			],
			"min":[
				0.3388479948043823,
				0.11537999659776688,
				-0.6907749772071838
			],
			"type":"VEC3"
		},
		{
			"bufferView":41,
			"componentType":5126,
			"count":2380,
			"type":"VEC3"
		},
		{
			"bufferView":42,
			"componentType":5126,
			"count":2380,
			"type":"VEC2"
		},
		{
			"bufferView":43,
			"componentType":5123,
			"count":3840,
			"type":"SCALAR"
		},
		{
			"bufferView":44,
			"componentType":5126,
			"count":1536,
			"max":[
				0.3448820114135742,
				0.10132399946451187,
				-0.7015179991722107
			],
			"min":[
				0.3264400064945221,
				0.07908699661493301,
				-0.7532740235328674
			],
			"type":"VEC3"
		},
		{
			"bufferView":45,
			"componentType":5126,
			"count":1536,
			"type":"VEC3"
		},
		{
			"bufferView":46,
			"componentType":5126,
			"count":1536,
			"type":"VEC2"
		},
		{
			"bufferView":47,
			"componentType":5123,
			"count":2304,
			"type":"SCALAR"
		},
		{
			"bufferView":48,
			"componentType":5126,
			"count":1536,
			"max":[
				0.3474830090999603,
				0.1046999990940094,
				-0.6692590117454529
			],
			"min":[
				0.3290320038795471,
				0.08284399658441544,
				-0.7210389971733093
			],
			"type":"VEC3"
		},
		{
			"bufferView":49,
			"componentType":5126,
			"count":1536,
			"type":"VEC3"
		},
		{
			"bufferView":50,
			"componentType":5126,
			"count":1536,
			"type":"VEC2"
		},
		{
			"bufferView":51,
			"componentType":5123,
			"count":2304,
			"type":"SCALAR"
		},
		{
			"bufferView":52,
			"componentType":5126,
			"count":2380,
			"max":[
				0.351408988237381,
				0.10902900248765945,
				-0.6332330107688904
			],
			"min":[
				0.3305329978466034,
				0.08516500145196915,
				-0.6951389908790588
			],
			"type":"VEC3"
		},
		{
			"bufferView":53,
			"componentType":5126,
			"count":2380,
			"type":"VEC3"
		},
		{
			"bufferView":54,
			"componentType":5126,
			"count":2380,
			"type":"VEC2"
		},
		{
			"bufferView":55,
			"componentType":5123,
			"count":3840,
			"type":"SCALAR"
		},
		{
			"bufferView":56,
			"componentType":5126,
			"count":1536,
			"max":[
				0.3376309871673584,
				0.08012200146913528,
				-0.7259439826011658
			],
			"min":[
				0.31933900713920593,
				0.056908998638391495,
				-0.7775989770889282
			],
			"type":"VEC3"
		},
		{
			"bufferView":57,
			"componentType":5126,
			"count":1536,
			"type":"VEC3"
		},
		{
			"bufferView":58,
			"componentType":5126,
			"count":1536,
			"type":"VEC2"
		},
		{
			"bufferView":59,
			"componentType":5123,
			"count":2304,
			"type":"SCALAR"
		},
		{
			"bufferView":60,
			"componentType":5126,
			"count":1536,
			"max":[
				0.33908799290657043,
				0.07886599749326706,
				-0.6931509971618652
			],
			"min":[
				0.320948988199234,
				0.05718100070953369,
				-0.7450050115585327
			],
			"type":"VEC3"
		},
		{
			"bufferView":61,
			"componentType":5126,
			"count":1536,
			"type":"VEC3"
		},
		{
			"bufferView":62,
			"componentType":5126,
			"count":1536,
			"type":"VEC2"
		},
		{
			"bufferView":63,
			"componentType":5123,
			"count":2304,
			"type":"SCALAR"
		},
		{
			"bufferView":64,
			"componentType":5126,
			"count":2380,
			"max":[
				0.3413330018520355,
				0.07793000340461731,
				-0.6566680073738098
			],
			"min":[
				0.321476012468338,
				0.0550989992916584,
				-0.718999981880188
			],
			"type":"VEC3"
		},
		{
			"bufferView":65,
			"componentType":5126,
			"count":2380,
			"type":"VEC3"
		},
		{
			"bufferView":66,
			"componentType":5126,
			"count":2380,
			"type":"VEC2"
		},
		{
			"bufferView":67,
			"componentType":5123,
			"count":3840,
			"type":"SCALAR"
		},
		{
			"bufferView":68,
			"componentType":5126,
			"count":1536,
			"max":[
				0.34938400983810425,
				0.1467989981174469,
				-0.7154800295829773
			],
			"min":[
				0.3085539937019348,
				0.05973999947309494,
				-0.7678790092468262
			],
			"type":"VEC3"
		},
		{
			"bufferView":69,
			"componentType":5126,
			"count":1536,
			"type":"VEC3"
		},
		{
			"bufferView":70,
			"componentType":5126,
			"count":1536,
			"type":"VEC2"
		},
		{
			"bufferView":71,
			"componentType":5123,
			"count":2304,
			"type":"SCALAR"
		},
		{
			"bufferView":72,
			"componentType":5126,
			"count":1536,
			"max":[
				0.3394170105457306,
				0.11637599766254425,
				-0.7377039790153503
			],
			"min":[
				0.2993659973144531,
				0.05439100041985512,
				-0.8211269974708557
			],
			"type":"VEC3"
		},
		{
			"bufferView":73,
			"componentType":5126,
			"count":1536,
			"type":"VEC3"
		},
		{
			"bufferView":74,
			"componentType":5126,
			"count":1536,
			"type":"VEC2"
		},
		{
			"bufferView":75,
			"componentType":5123,
			"count":2304,
			"type":"SCALAR"
		}
	],
	"bufferViews":[
		{
			"buffer":0,
			"byteLength":67584,
			"byteOffset":0,
			"target":34962
		},
		{
			"buffer":0,
			"byteLength":67584,
			"byteOffset":67584,
			"target":34962
		},
		{
			"buffer":0,
			"byteLength":45056,
			"byteOffset":135168,
			"target":34962
		},
		{
			"buffer":0,
			"byteLength":16896,
			"byteOffset":180224,
			"target":34963
		},
		{
			"buffer":0,
			"byteLength":36564,
			"byteOffset":197120,
			"target":34962
		},
		{
			"buffer":0,
			"byteLength":36564,
			"byteOffset":233684,
			"target":34962
		},
		{
			"buffer":0,
			"byteLength":24376,
			"byteOffset":270248,
			"target":34962
		},
		{
			"buffer":0,
			"byteLength":10752,
			"byteOffset":294624,
			"target":34963
		},
		{
			"buffer":0,
			"byteLength":28872,
			"byteOffset":305376,
			"target":34962
		},
		{
			"buffer":0,
			"byteLength":28872,
			"byteOffset":334248,
			"target":34962
		},
		{
			"buffer":0,
			"byteLength":19248,
			"byteOffset":363120,
			"target":34962
		},
		{
			"buffer":0,
			"byteLength":7680,
			"byteOffset":382368,
			"target":34963
		},
		{
			"buffer":0,
			"byteLength":18432,
			"byteOffset":390048,
			"target":34962
		},
		{
			"buffer":0,
			"byteLength":18432,
			"byteOffset":408480,
			"target":34962
		},
		{
			"buffer":0,
			"byteLength":12288,
			"byteOffset":426912,
			"target":34962
		},
		{
			"buffer":0,
			"byteLength":4608,
			"byteOffset":439200,
			"target":34963
		},
		{
			"buffer":0,
			"byteLength":40464,
			"byteOffset":443808,
			"target":34962
		},
		{
			"buffer":0,
			"byteLength":40464,
			"byteOffset":484272,
			"target":34962
		},
		{
			"buffer":0,
			"byteLength":26976,
			"byteOffset":524736,
			"target":34962
		},
		{
			"buffer":0,
			"byteLength":10752,
			"byteOffset":551712,
			"target":34963
		},
		{
			"buffer":0,
			"byteLength":18432,
			"byteOffset":562464,
			"target":34962
		},
		{
			"buffer":0,
			"byteLength":18432,
			"byteOffset":580896,
			"target":34962
		},
		{
			"buffer":0,
			"byteLength":12288,
			"byteOffset":599328,
			"target":34962
		},
		{
			"buffer":0,
			"byteLength":4608,
			"byteOffset":611616,
			"target":34963
		},
		{
			"buffer":0,
			"byteLength":18432,
			"byteOffset":616224,
			"target":34962
		},
		{
			"buffer":0,
			"byteLength":18432,
			"byteOffset":634656,
			"target":34962
		},
		{
			"buffer":0,
			"byteLength":12288,
			"byteOffset":653088,
			"target":34962
		},
		{
			"buffer":0,
			"byteLength":4608,
			"byteOffset":665376,
			"target":34963
		},
		{
			"buffer":0,
			"byteLength":28560,
			"byteOffset":669984,
			"target":34962
		},
		{
			"buffer":0,
			"byteLength":28560,
			"byteOffset":698544,
			"target":34962
		},
		{
			"buffer":0,
			"byteLength":19040,
			"byteOffset":727104,
			"target":34962
		},
		{
			"buffer":0,
			"byteLength":7680,
			"byteOffset":746144,
			"target":34963
		},
		{
			"buffer":0,
			"byteLength":18432,
			"byteOffset":753824,
			"target":34962
		},
		{
			"buffer":0,
			"byteLength":18432,
			"byteOffset":772256,
			"target":34962
		},
		{
			"buffer":0,
			"byteLength":12288,
			"byteOffset":790688,
			"target":34962
		},
		{
			"buffer":0,
			"byteLength":4608,
			"byteOffset":802976,
			"target":34963
		},
		{
			"buffer":0,
			"byteLength":18432,
			"byteOffset":807584,
			"target":34962
		},
		{
			"buffer":0,
			"byteLength":18432,
			"byteOffset":826016,
			"target":34962
		},
		{
			"buffer":0,
			"byteLength":12288,
			"byteOffset":844448,
			"target":34962
		},
		{
			"buffer":0,
			"byteLength":4608,
			"byteOffset":856736,
			"target":34963
		},
		{
			"buffer":0,
			"byteLength":28560,
			"byteOffset":861344,
			"target":34962
		},
		{
			"buffer":0,
			"byteLength":28560,
			"byteOffset":889904,
			"target":34962
		},
		{
			"buffer":0,
			"byteLength":19040,
			"byteOffset":918464,
			"target":34962
		},
		{
			"buffer":0,
			"byteLength":7680,
			"byteOffset":937504,
			"target":34963
		},
		{
			"buffer":0,
			"byteLength":18432,
			"byteOffset":945184,
			"target":34962
		},
		{
			"buffer":0,
			"byteLength":18432,
			"byteOffset":963616,
			"target":34962
		},
		{
			"buffer":0,
			"byteLength":12288,
			"byteOffset":982048,
			"target":34962
		},
		{
			"buffer":0,
			"byteLength":4608,
			"byteOffset":994336,
			"target":34963
		},
		{
			"buffer":0,
			"byteLength":18432,
			"byteOffset":998944,
			"target":34962
		},
		{
			"buffer":0,
			"byteLength":18432,
			"byteOffset":1017376,
			"target":34962
		},
		{
			"buffer":0,
			"byteLength":12288,
			"byteOffset":1035808,
			"target":34962
		},
		{
			"buffer":0,
			"byteLength":4608,
			"byteOffset":1048096,
			"target":34963
		},
		{
			"buffer":0,
			"byteLength":28560,
			"byteOffset":1052704,
			"target":34962
		},
		{
			"buffer":0,
			"byteLength":28560,
			"byteOffset":1081264,
			"target":34962
		},
		{
			"buffer":0,
			"byteLength":19040,
			"byteOffset":1109824,
			"target":34962
		},
		{
			"buffer":0,
			"byteLength":7680,
			"byteOffset":1128864,
			"target":34963
		},
		{
			"buffer":0,
			"byteLength":18432,
			"byteOffset":1136544,
			"target":34962
		},
		{
			"buffer":0,
			"byteLength":18432,
			"byteOffset":1154976,
			"target":34962
		},
		{
			"buffer":0,
			"byteLength":12288,
			"byteOffset":1173408,
			"target":34962
		},
		{
			"buffer":0,
			"byteLength":4608,
			"byteOffset":1185696,
			"target":34963
		},
		{
			"buffer":0,
			"byteLength":18432,
			"byteOffset":1190304,
			"target":34962
		},
		{
			"buffer":0,
			"byteLength":18432,
			"byteOffset":1208736,
			"target":34962
		},
		{
			"buffer":0,
			"byteLength":12288,
			"byteOffset":1227168,
			"target":34962
		},
		{
			"buffer":0,
			"byteLength":4608,
			"byteOffset":1239456,
			"target":34963
		},
		{
			"buffer":0,
			"byteLength":28560,
			"byteOffset":1244064,
			"target":34962
		},
		{
			"buffer":0,
			"byteLength":28560,
			"byteOffset":1272624,
			"target":34962
		},
		{
			"buffer":0,
			"byteLength":19040,
			"byteOffset":1301184,
			"target":34962
		},
		{
			"buffer":0,
			"byteLength":7680,
			"byteOffset":1320224,
			"target":34963
		},
		{
			"buffer":0,
			"byteLength":18432,
			"byteOffset":1327904,
			"target":34962
		},
		{
			"buffer":0,
			"byteLength":18432,
			"byteOffset":1346336,
			"target":34962
		},
		{
			"buffer":0,
			"byteLength":12288,
			"byteOffset":1364768,
			"target":34962
		},
		{
			"buffer":0,
			"byteLength":4608,
			"byteOffset":1377056,
			"target":34963
		},
		{
			"buffer":0,
			"byteLength":18432,
			"byteOffset":1381664,
			"target":34962
		},
		{
			"buffer":0,
			"byteLength":18432,
			"byteOffset":1400096,
			"target":34962
		},
		{
			"buffer":0,
			"byteLength":12288,
			"byteOffset":1418528,
			"target":34962
		},
		{
			"buffer":0,
			"byteLength":4608,
			"byteOffset":1430816,
			"target":34963
		}
	],
	"buffers":[
		{
			"byteLength":1435424,
			"uri":"arm.bin"
		}
	]
}
