{
	"asset":{
		"generator":"Khronos glTF Blender I/O v4.1.63",
		"version":"2.0"
	},
	"extensionsUsed":[
		"KHR_materials_specular"
	],
	"scene":0,
	"scenes":[
		{
			"name":"Scene",
			"nodes":[
				0,
				1,
				2,
				3,
				4,
				5,
				6,
				7,
				8,
				9,
				10,
				11,
				12
			]
		}
	],
	"nodes":[
		{
			"mesh":0,
			"name":"Cube",
			"rotation":[
				0.7071068286895752,
				0,
				0,
				0.7071068286895752
			]
		},
		{
			"mesh":1,
			"name":"Cube.002",
			"rotation":[
				0.7071068286895752,
				0,
				0,
				0.7071068286895752
			]
		},
		{
			"mesh":2,
			"name":"Cube.003",
			"rotation":[
				0.7071068286895752,
				0,
				0,
				0.7071068286895752
			]
		},
		{
			"mesh":3,
			"name":"Cube.004",
			"rotation":[
				0.7071068286895752,
				0,
				0,
				0.7071068286895752
			]
		},
		{
			"mesh":4,
			"name":"Cube.005",
			"rotation":[
				0.7071068286895752,
				0,
				0,
				0.7071068286895752
			]
		},
		{
			"mesh":5,
			"name":"Cube.006",
			"rotation":[
				0.7071068286895752,
				0,
				0,
				0.7071068286895752
			]
		},
		{
			"mesh":6,
			"name":"Cube.007",
			"rotation":[
				0.7071068286895752,
				0,
				0,
				0.7071068286895752
			]
		},
		{
			"mesh":7,
			"name":"Cube.008",
			"rotation":[
				0.7071068286895752,
				0,
				0,
				0.7071068286895752
			]
		},
		{
			"mesh":8,
			"name":"Cube.009_Cube.010",
			"rotation":[
				0.7071068286895752,
				0,
				0,
				0.7071068286895752
			]
		},
		{
			"mesh":9,
			"name":"Cube.010_Cube.011",
			"rotation":[
				0.7071068286895752,
				0,
				0,
				0.7071068286895752
			]
		},
		{
			"mesh":10,
			"name":"Cube.011_Cube.012",
			"rotation":[
				0.7071068286895752,
				0,
				0,
				0.7071068286895752
			]
		},
		{
			"mesh":11,
			"name":"Cube.012_Cube.013",
			"rotation":[
				0.7071068286895752,
				0,
				0,
				0.7071068286895752
			]
		},
		{
			"mesh":12,
			"name":"Foot_LP",
			"rotation":[
				0.7071068286895752,
				0,
				0,
				0.7071068286895752
			]
		}
	],
	"materials":[
		{
			"doubleSided":true,
			"extensions":{
				"KHR_materials_specular":{
					"specularFactor":0
				}
			},
			"name":"None.002",
			"pbrMetallicRoughness":{
				"baseColorFactor":[
					0.800000011920929,
					0.800000011920929,
					0.800000011920929,
					1
				],
				"metallicFactor":0
			}
		},
		{
			"doubleSided":true,
			"extensions":{
				"KHR_materials_specular":{
					"specularFactor":0
				}
			},
			"name":"Default_OBJ.002",
			"pbrMetallicRoughness":{
				"baseColorFactor":[
					0.800000011920929,
					0.800000011920929,
					0.800000011920929,
					1
				],
				"metallicFactor":0
			}
		}
	],
	"meshes":[
		{
			"name":"Cube.021",
			"primitives":[
				{
					"attributes":{
						"POSITION":0,
						"NORMAL":1,
						"TEXCOORD_0":2
					},
					"indices":3,
					"material":0
				}
			]
		},
		{
			"name":"Cube.022",
			"primitives":[
				{
					"attributes":{
						"POSITION":4,
						"NORMAL":5,
						"TEXCOORD_0":6
					},
					"indices":7,
					"material":0
				}
			]
		},
		{
			"name":"Cube.023",
			"primitives":[
				{
					"attributes":{
						"POSITION":8,
						"NORMAL":9,
						"TEXCOORD_0":10
					},
					"indices":11,
					"material":0
				}
			]
		},
		{
			"name":"Cube.024",
			"primitives":[
				{
					"attributes":{
						"POSITION":12,
						"NORMAL":13,
						"TEXCOORD_0":14
					},
					"indices":15,
					"material":0
				}
			]
		},
		{
			"name":"Cube.025",
			"primitives":[
				{
					"attributes":{
						"POSITION":16,
						"NORMAL":17,
						"TEXCOORD_0":18
					},
					"indices":19,
					"material":0
				}
			]
		},
		{
			"name":"Cube.026",
			"primitives":[
				{
					"attributes":{
						"POSITION":20,
						"NORMAL":21,
						"TEXCOORD_0":22
					},
					"indices":23,
					"material":0
				}
			]
		},
		{
			"name":"Cube.027",
			"primitives":[
				{
					"attributes":{
						"POSITION":24,
						"NORMAL":25,
						"TEXCOORD_0":26
					},
					"indices":27,
					"material":0
				}
			]
		},
		{
			"name":"Cube.028",
			"primitives":[
				{
					"attributes":{
						"POSITION":28,
						"NORMAL":29,
						"TEXCOORD_0":30
					},
					"indices":31,
					"material":0
				}
			]
		},
		{
			"name":"Cube.009_Cube.002",
			"primitives":[
				{
					"attributes":{
						"POSITION":32,
						"NORMAL":33,
						"TEXCOORD_0":34
					},
					"indices":35,
					"material":0
				}
			]
		},
		{
			"name":"Cube.010_Cube.002",
			"primitives":[
				{
					"attributes":{
						"POSITION":36,
						"NORMAL":37,
						"TEXCOORD_0":38
					},
					"indices":39,
					"material":0
				}
			]
		},
		{
			"name":"Cube.011_Cube.002",
			"primitives":[
				{
					"attributes":{
						"POSITION":40,
						"NORMAL":41,
						"TEXCOORD_0":42
					},
					"indices":43,
					"material":0
				}
			]
		},
		{
			"name":"Cube.012_Cube.002",
			"primitives":[
				{
					"attributes":{
						"POSITION":44,
						"NORMAL":45,
						"TEXCOORD_0":46
					},
					"indices":47,
					"material":0
				}
			]
		},
		{
			"name":"Foot_LP.002",
			"primitives":[
				{
					"attributes":{
						"POSITION":48,
						"NORMAL":49
					},
					"indices":50,
					"material":1
				}
			]
		}
	],
	"accessors":[
		{
			"bufferView":0,
			"componentType":5126,
			"count":1536,
			"max":[
				0.06953199952840805,
				0.12154600024223328,
				-1.6230820417404175
			],
			"min":[
				-0.06953199952840805,
				-0.055716000497341156,
				-1.7838200330734253
			],
			"type":"VEC3"
		},
		{
			"bufferView":1,
			"componentType":5126,
			"count":1536,
			"type":"VEC3"
		},
		{
			"bufferView":2,
			"componentType":5126,
			"count":1536,
			"type":"VEC2"
		},
		{
			"bufferView":3,
			"componentType":5123,
			"count":2304,
			"type":"SCALAR"
		},
		{
			"bufferView":4,
			"componentType":5126,
			"count":3584,
			"max":[
				0.06270900368690491,
				0.12849800288677216,
				-1.555209994316101
			],
			"min":[
				-0.06270900368690491,
				0.015363999642431736,
				-1.7139149904251099
			],
			"type":"VEC3"
		},
		{
			"bufferView":5,
			"componentType":5126,
			"count":3584,
			"type":"VEC3"
		},
		{
			"bufferView":6,
			"componentType":5126,
			"count":3584,
			"type":"VEC2"
		},
		{
			"bufferView":7,
			"componentType":5123,
			"count":5376,
			"type":"SCALAR"
		},
		{
			"bufferView":8,
			"componentType":5126,
			"count":4608,
			"max":[
				0.05956500023603439,
				0.08011800050735474,
				-1.4551210403442383
			],
			"min":[
				-0.05956500023603439,
				-0.04529299959540367,
				-1.668228030204773
			],
			"type":"VEC3"
		},
		{
			"bufferView":9,
			"componentType":5126,
			"count":4608,
			"type":"VEC3"
		},
		{
			"bufferView":10,
			"componentType":5126,
			"count":4608,
			"type":"VEC2"
		},
		{
			"bufferView":11,
			"componentType":5123,
			"count":6912,
			"type":"SCALAR"
		},
		{
			"bufferView":12,
			"componentType":5126,
			"count":2560,
			"max":[
				0.157601997256279,
				0.15771600604057312,
				-1.1767619848251343
			],
			"min":[
				-0.157601997256279,
				-0.07927600294351578,
				-1.516150951385498
			],
			"type":"VEC3"
		},
		{
			"bufferView":13,
			"componentType":5126,
			"count":2560,
			"type":"VEC3"
		},
		{
			"bufferView":14,
			"componentType":5126,
			"count":2560,
			"type":"VEC2"
		},
		{
			"bufferView":15,
			"componentType":5123,
			"count":3840,
			"type":"SCALAR"
		},
		{
			"bufferView":16,
			"componentType":5126,
			"count":4608,
			"max":[
				0.1481969952583313,
				0.15337200462818146,
				-0.9454190135002136
			],
			"min":[
				-0.1481969952583313,
				-0.04664900153875351,
				-1.4114019870758057
			],
			"type":"VEC3"
		},
		{
			"bufferView":17,
			"componentType":5126,
			"count":4608,
			"type":"VEC3"
		},
		{
			"bufferView":18,
			"componentType":5126,
			"count":4608,
			"type":"VEC2"
		},
		{
			"bufferView":19,
			"componentType":5123,
			"count":6912,
			"type":"SCALAR"
		},
		{
			"bufferView":20,
			"componentType":5126,
			"count":9216,
			"max":[
				0.08236400038003922,
				0.0439470000565052,
				-1.624587059020996
			],
			"min":[
				-0.08236400038003922,
				0.014487000182271004,
				-1.6894630193710327
			],
			"type":"VEC3"
		},
		{
			"bufferView":21,
			"componentType":5126,
			"count":9216,
			"type":"VEC3"
		},
		{
			"bufferView":22,
			"componentType":5126,
			"count":9216,
			"type":"VEC2"
		},
		{
			"bufferView":23,
			"componentType":5123,
			"count":13824,
			"type":"SCALAR"
		},
		{
			"bufferView":24,
			"componentType":5126,
			"count":11264,
			"max":[
				0.23552000522613525,
				0.09486199915409088,
				-1.305745005607605
			],
			"min":[
				-0.23552000522613525,
				-0.08262500166893005,
				-1.513625979423523
			],
			"type":"VEC3"
		},
		{
			"bufferView":25,
			"componentType":5126,
			"count":11264,
			"type":"VEC3"
		},
		{
			"bufferView":26,
			"componentType":5126,
			"count":11264,
			"type":"VEC2"
		},
		{
			"bufferView":27,
			"componentType":5123,
			"count":16896,
			"type":"SCALAR"
		},
		{
			"bufferView":28,
			"componentType":5126,
			"count":5120,
			"max":[
				0.264055997133255,
				0.058761999011039734,
				-1.1464020013809204
			],
			"min":[
				-0.264055997133255,
				-0.05510399863123894,
				-1.3691240549087524
			],
			"type":"VEC3"
		},
		{
			"bufferView":29,
			"componentType":5126,
			"count":5120,
			"type":"VEC3"
		},
		{
			"bufferView":30,
			"componentType":5126,
			"count":5120,
			"type":"VEC2"
		},
		{
			"bufferView":31,
			"componentType":5123,
			"count":7680,
			"type":"SCALAR"
		},
		{
			"bufferView":32,
			"componentType":5126,
			"count":5632,
			"max":[
				0.10365600138902664,
				0.136585995554924,
				-0.8674709796905518
			],
			"min":[
				-0.10365600138902664,
				-0.005797999911010265,
				-1.1065280437469482
			],
			"type":"VEC3"
		},
		{
			"bufferView":33,
			"componentType":5126,
			"count":5632,
			"type":"VEC3"
		},
		{
			"bufferView":34,
			"componentType":5126,
			"count":5632,
			"type":"VEC2"
		},
		{
			"bufferView":35,
			"componentType":5123,
			"count":8448,
			"type":"SCALAR"
		},
		{
			"bufferView":36,
			"componentType":5126,
			"count":7168,
			"max":[
				0.12374600023031235,
				0.12609699368476868,
				-0.5113070011138916
			],
			"min":[
				-0.12374600023031235,
				-0.015939999371767044,
				-0.9755010008811951
			],
			"type":"VEC3"
		},
		{
			"bufferView":37,
			"componentType":5126,
			"count":7168,
			"type":"VEC3"
		},
		{
			"bufferView":38,
			"componentType":5126,
			"count":7168,
			"type":"VEC2"
		},
		{
			"bufferView":39,
			"componentType":5123,
			"count":10752,
			"type":"SCALAR"
		},
		{
			"bufferView":40,
			"componentType":5126,
			"count":3072,
			"max":[
				0.09319300204515457,
				0.09354300051927567,
				-0.9114159941673279
			],
			"min":[
				-0.09319300204515457,
				-0.025849999859929085,
				-1.0353440046310425
			],
			"type":"VEC3"
		},
		{
			"bufferView":41,
			"componentType":5126,
			"count":3072,
			"type":"VEC3"
		},
		{
			"bufferView":42,
			"componentType":5126,
			"count":3072,
			"type":"VEC2"
		},
		{
			"bufferView":43,
			"componentType":5123,
			"count":4608,
			"type":"SCALAR"
		},
		{
			"bufferView":44,
			"componentType":5126,
			"count":17408,
			"max":[
				0.14331099390983582,
				0.05555099993944168,
				-0.1380079984664917
			],
			"min":[
				-0.14331099390983582,
				-0.1062380000948906,
				-0.5894860029220581
			],
			"type":"VEC3"
		},
		{
			"bufferView":45,
			"componentType":5126,
			"count":17408,
			"type":"VEC3"
		},
		{
			"bufferView":46,
			"componentType":5126,
			"count":17408,
			"type":"VEC2"
		},
		{
			"bufferView":47,
			"componentType":5123,
			"count":26112,
			"type":"SCALAR"
		},
		{
			"bufferView":48,
			"componentType":5126,
			"count":2808,
			"max":[
				0.16076000034809113,
				0.13894400000572205,
				0.004172999877482653
			],
			"min":[
				-0.16076000034809113,
				-0.09441400319337845,
				-0.149726003408432
			],
			"type":"VEC3"
		},
		{
			"bufferView":49,
			"componentType":5126,
			"count":2808,
			"type":"VEC3"
		},
		{
			"bufferView":50,
			"componentType":5123,
			"count":4212,
			"type":"SCALAR"
		}
	],
	"bufferViews":[
		{
			"buffer":0,
			"byteLength":18432,
			"byteOffset":0,
			"target":34962
		},
		{
			"buffer":0,
			"byteLength":18432,
			"byteOffset":18432,
			"target":34962
		},
		{
			"buffer":0,
			"byteLength":12288,
			"byteOffset":36864,
			"target":34962
		},
		{
			"buffer":0,
			"byteLength":4608,
			"byteOffset":49152,
			"target":34963
		},
		{
			"buffer":0,
			"byteLength":43008,
			"byteOffset":53760,
			"target":34962
		},
		{
			"buffer":0,
			"byteLength":43008,
			"byteOffset":96768,
			"target":34962
		},
		{
			"buffer":0,
			"byteLength":28672,
			"byteOffset":139776,
			"target":34962
		},
		{
			"buffer":0,
			"byteLength":10752,
			"byteOffset":168448,
			"target":34963
		},
		{
			"buffer":0,
			"byteLength":55296,
			"byteOffset":179200,
			"target":34962
		},
		{
			"buffer":0,
			"byteLength":55296,
			"byteOffset":234496,
			"target":34962
		},
		{
			"buffer":0,
			"byteLength":36864,
			"byteOffset":289792,
			"target":34962
		},
		{
			"buffer":0,
			"byteLength":13824,
			"byteOffset":326656,
			"target":34963
		},
		{
			"buffer":0,
			"byteLength":30720,
			"byteOffset":340480,
			"target":34962
		},
		{
			"buffer":0,
			"byteLength":30720,
			"byteOffset":371200,
			"target":34962
		},
		{
			"buffer":0,
			"byteLength":20480,
			"byteOffset":401920,
			"target":34962
		},
		{
			"buffer":0,
			"byteLength":7680,
			"byteOffset":422400,
			"target":34963
		},
		{
			"buffer":0,
			"byteLength":55296,
			"byteOffset":430080,
			"target":34962
		},
		{
			"buffer":0,
			"byteLength":55296,
			"byteOffset":485376,
			"target":34962
		},
		{
			"buffer":0,
			"byteLength":36864,
			"byteOffset":540672,
			"target":34962
		},
		{
			"buffer":0,
			"byteLength":13824,
			"byteOffset":577536,
			"target":34963
		},
		{
			"buffer":0,
			"byteLength":110592,
			"byteOffset":591360,
			"target":34962
		},
		{
			"buffer":0,
			"byteLength":110592,
			"byteOffset":701952,
			"target":34962
		},
		{
			"buffer":0,
			"byteLength":73728,
			"byteOffset":812544,
			"target":34962
		},
		{
			"buffer":0,
			"byteLength":27648,
			"byteOffset":886272,
			"target":34963
		},
		{
			"buffer":0,
			"byteLength":135168,
			"byteOffset":913920,
			"target":34962
		},
		{
			"buffer":0,
			"byteLength":135168,
			"byteOffset":1049088,
			"target":34962
		},
		{
			"buffer":0,
			"byteLength":90112,
			"byteOffset":1184256,
			"target":34962
		},
		{
			"buffer":0,
			"byteLength":33792,
			"byteOffset":1274368,
			"target":34963
		},
		{
			"buffer":0,
			"byteLength":61440,
			"byteOffset":1308160,
			"target":34962
		},
		{
			"buffer":0,
			"byteLength":61440,
			"byteOffset":1369600,
			"target":34962
		},
		{
			"buffer":0,
			"byteLength":40960,
			"byteOffset":1431040,
			"target":34962
		},
		{
			"buffer":0,
			"byteLength":15360,
			"byteOffset":1472000,
			"target":34963
		},
		{
			"buffer":0,
			"byteLength":67584,
			"byteOffset":1487360,
			"target":34962
		},
		{
			"buffer":0,
			"byteLength":67584,
			"byteOffset":1554944,
			"target":34962
		},
		{
			"buffer":0,
			"byteLength":45056,
			"byteOffset":1622528,
			"target":34962
		},
		{
			"buffer":0,
			"byteLength":16896,
			"byteOffset":1667584,
			"target":34963
		},
		{
			"buffer":0,
			"byteLength":86016,
			"byteOffset":1684480,
			"target":34962
		},
		{
			"buffer":0,
			"byteLength":86016,
			"byteOffset":1770496,
			"target":34962
		},
		{
			"buffer":0,
			"byteLength":57344,
			"byteOffset":1856512,
			"target":34962
		},
		{
			"buffer":0,
			"byteLength":21504,
			"byteOffset":1913856,
			"target":34963
		},
		{
			"buffer":0,
			"byteLength":36864,
			"byteOffset":1935360,
			"target":34962
		},
		{
			"buffer":0,
			"byteLength":36864,
			"byteOffset":1972224,
			"target":34962
		},
		{
			"buffer":0,
			"byteLength":24576,
			"byteOffset":2009088,
			"target":34962
		},
		{
			"buffer":0,
			"byteLength":9216,
			"byteOffset":2033664,
			"target":34963
		},
		{
			"buffer":0,
			"byteLength":208896,
			"byteOffset":2042880,
			"target":34962
		},
		{
			"buffer":0,
			"byteLength":208896,
			"byteOffset":2251776,
			"target":34962
		},
		{
			"buffer":0,
			"byteLength":139264,
			"byteOffset":2460672,
			"target":34962
		},
		{
			"buffer":0,
			"byteLength":52224,
			"byteOffset":2599936,
			"target":34963
		},
		{
			"buffer":0,
			"byteLength":33696,
			"byteOffset":2652160,
			"target":34962
		},
		{
			"buffer":0,
			"byteLength":33696,
			"byteOffset":2685856,
			"target":34962
		},
		{
			"buffer":0,
			"byteLength":8424,
			"byteOffset":2719552,
			"target":34963
		}
	],
	"buffers":[
		{
			"byteLength":2727976,
			"uri":"body.bin"
		}
	]
}
